<mxfile host="drawio-plugin" modified="2022-05-18T22:15:17.627Z" agent="5.0 (Macintosh; Intel Mac OS X 10_15_7) AppleWebKit/537.36 (KHTML, like Gecko) Chrome/97.0.4692.45 Safari/537.36" etag="dxb0t01IoOPM_1Z1q9iv" version="15.5.4" type="embed"><diagram id="lYWwpbSONyXNV8ZIb4H8" name="Страница 1"><mxGraphModel dx="448" dy="448" grid="1" gridSize="10" guides="1" tooltips="1" connect="1" arrows="1" fold="1" page="1" pageScale="1" pageWidth="827" pageHeight="1169" math="0" shadow="0"><root><mxCell id="0"/><mxCell id="1" parent="0"/><mxCell id="BUosatLlLlDatQ4Kyscq-10" value="" style="group" parent="1" vertex="1" connectable="0"><mxGeometry x="660.0200000000001" y="391" width="175.9999999999999" height="129" as="geometry"/></mxCell><mxCell id="BUosatLlLlDatQ4Kyscq-1" value="Аналитик" style="ellipse;whiteSpace=wrap;html=1;fillColor=#FFF4C3;" parent="BUosatLlLlDatQ4Kyscq-10" vertex="1"><mxGeometry width="140" height="70" as="geometry"/></mxCell><mxCell id="BUosatLlLlDatQ4Kyscq-2" value="" style="endArrow=none;html=1;rounded=0;exitX=0;exitY=1;exitDx=0;exitDy=0;entryX=0;entryY=0;entryDx=0;entryDy=0;" parent="BUosatLlLlDatQ4Kyscq-10" source="BUosatLlLlDatQ4Kyscq-1" target="BUosatLlLlDatQ4Kyscq-1" edge="1"><mxGeometry width="50" height="50" relative="1" as="geometry"><mxPoint x="-10" y="30" as="sourcePoint"/><mxPoint x="40" y="-20" as="targetPoint"/></mxGeometry></mxCell><mxCell id="BUosatLlLlDatQ4Kyscq-13" value="" style="group" parent="1" vertex="1" connectable="0"><mxGeometry x="660.0200000000001" y="226" width="140" height="70" as="geometry"/></mxCell><mxCell id="BUosatLlLlDatQ4Kyscq-5" value="Исследователь" style="ellipse;whiteSpace=wrap;html=1;fillColor=#FFF4C3;" parent="BUosatLlLlDatQ4Kyscq-13" vertex="1"><mxGeometry width="140" height="70" as="geometry"/></mxCell><mxCell id="BUosatLlLlDatQ4Kyscq-6" value="" style="endArrow=none;html=1;rounded=0;exitX=0;exitY=1;exitDx=0;exitDy=0;entryX=0;entryY=0;entryDx=0;entryDy=0;" parent="BUosatLlLlDatQ4Kyscq-13" source="BUosatLlLlDatQ4Kyscq-5" target="BUosatLlLlDatQ4Kyscq-5" edge="1"><mxGeometry width="50" height="50" relative="1" as="geometry"><mxPoint x="-10" y="30" as="sourcePoint"/><mxPoint x="40" y="-20" as="targetPoint"/></mxGeometry></mxCell><mxCell id="BUosatLlLlDatQ4Kyscq-100" style="edgeStyle=orthogonalEdgeStyle;rounded=0;orthogonalLoop=1;jettySize=auto;html=1;exitX=0.5;exitY=1;exitDx=0;exitDy=0;entryX=0.5;entryY=0;entryDx=0;entryDy=0;endArrow=classicThin;endFill=1;" parent="1" source="BUosatLlLlDatQ4Kyscq-14" target="BUosatLlLlDatQ4Kyscq-16" edge="1"><mxGeometry relative="1" as="geometry"/></mxCell><mxCell id="BUosatLlLlDatQ4Kyscq-14" value="Сформированы требования к элементу генплана" style="shape=hexagon;perimeter=hexagonPerimeter2;whiteSpace=wrap;html=1;fixedSize=1;fillColor=#F8CECC;" parent="1" vertex="1"><mxGeometry x="177" y="11" width="143.25" height="50" as="geometry"/></mxCell><mxCell id="BUosatLlLlDatQ4Kyscq-101" style="edgeStyle=orthogonalEdgeStyle;rounded=0;orthogonalLoop=1;jettySize=auto;html=1;exitX=0.5;exitY=1;exitDx=0;exitDy=0;entryX=0.5;entryY=0;entryDx=0;entryDy=0;endArrow=classicThin;endFill=1;" parent="1" source="BUosatLlLlDatQ4Kyscq-16" target="BUosatLlLlDatQ4Kyscq-27" edge="1"><mxGeometry relative="1" as="geometry"><mxPoint x="252.5" y="151" as="targetPoint"/></mxGeometry></mxCell><mxCell id="BUosatLlLlDatQ4Kyscq-16" value="Предоставление данных&lt;br&gt;для проведения исследований" style="rounded=1;whiteSpace=wrap;html=1;" parent="1" vertex="1"><mxGeometry x="170.25" y="79" width="156.5" height="45" as="geometry"/></mxCell><mxCell id="BUosatLlLlDatQ4Kyscq-103" style="edgeStyle=orthogonalEdgeStyle;rounded=0;orthogonalLoop=1;jettySize=auto;html=1;exitX=0.5;exitY=1;exitDx=0;exitDy=0;entryX=0.5;entryY=0;entryDx=0;entryDy=0;endArrow=classicThin;endFill=1;" parent="1" source="BUosatLlLlDatQ4Kyscq-17" target="BUosatLlLlDatQ4Kyscq-33" edge="1"><mxGeometry relative="1" as="geometry"/></mxCell><mxCell id="BUosatLlLlDatQ4Kyscq-17" value="Загрузка кейса с данными в расчетный модуль" style="rounded=1;whiteSpace=wrap;html=1;fillColor=#FFFFFF;" parent="1" vertex="1"><mxGeometry x="189.5" y="211" width="120" height="50" as="geometry"/></mxCell><mxCell id="BUosatLlLlDatQ4Kyscq-106" style="edgeStyle=orthogonalEdgeStyle;rounded=0;orthogonalLoop=1;jettySize=auto;html=1;exitX=0.5;exitY=1;exitDx=0;exitDy=0;endArrow=classicThin;endFill=1;entryX=0.5;entryY=0;entryDx=0;entryDy=0;" parent="1" source="BUosatLlLlDatQ4Kyscq-18" target="BUosatLlLlDatQ4Kyscq-38" edge="1"><mxGeometry relative="1" as="geometry"><mxPoint x="500.25" y="1" as="targetPoint"/><Array as="points"><mxPoint x="249.25" y="471"/></Array></mxGeometry></mxCell><mxCell id="BUosatLlLlDatQ4Kyscq-18" value="Получение данных&amp;nbsp; для исследований" style="rounded=1;whiteSpace=wrap;html=1;fillColor=#FFFFFF;" parent="1" vertex="1"><mxGeometry x="189.5" y="351" width="120" height="40" as="geometry"/></mxCell><mxCell id="BUosatLlLlDatQ4Kyscq-64" style="edgeStyle=orthogonalEdgeStyle;rounded=0;orthogonalLoop=1;jettySize=auto;html=1;exitX=0.5;exitY=1;exitDx=0;exitDy=0;entryX=0.5;entryY=0;entryDx=0;entryDy=0;endArrow=classicThin;endFill=1;" parent="1" source="BUosatLlLlDatQ4Kyscq-19" target="BUosatLlLlDatQ4Kyscq-63" edge="1"><mxGeometry relative="1" as="geometry"/></mxCell><mxCell id="BUosatLlLlDatQ4Kyscq-19" value="Проведение экспериментов" style="rounded=1;whiteSpace=wrap;html=1;fillColor=#FFFFFF;" parent="1" vertex="1"><mxGeometry x="449.5" y="251" width="120" height="40" as="geometry"/></mxCell><mxCell id="BUosatLlLlDatQ4Kyscq-116" style="edgeStyle=orthogonalEdgeStyle;rounded=0;orthogonalLoop=1;jettySize=auto;html=1;exitX=0.5;exitY=1;exitDx=0;exitDy=0;entryX=0.5;entryY=0;entryDx=0;entryDy=0;endArrow=classicThin;endFill=1;" parent="1" source="BUosatLlLlDatQ4Kyscq-23" target="BUosatLlLlDatQ4Kyscq-42" edge="1"><mxGeometry relative="1" as="geometry"><Array as="points"><mxPoint x="599" y="121"/><mxPoint x="509" y="121"/></Array></mxGeometry></mxCell><mxCell id="BUosatLlLlDatQ4Kyscq-23" value="Выбор существующей методики" style="rounded=1;whiteSpace=wrap;html=1;fillColor=#FFFFFF;" parent="1" vertex="1"><mxGeometry x="529.25" y="71" width="140" height="40" as="geometry"/></mxCell><mxCell id="BUosatLlLlDatQ4Kyscq-102" style="edgeStyle=orthogonalEdgeStyle;rounded=0;orthogonalLoop=1;jettySize=auto;html=1;exitX=0.5;exitY=1;exitDx=0;exitDy=0;entryX=0.5;entryY=0;entryDx=0;entryDy=0;endArrow=classicThin;endFill=1;" parent="1" source="BUosatLlLlDatQ4Kyscq-27" target="BUosatLlLlDatQ4Kyscq-17" edge="1"><mxGeometry relative="1" as="geometry"><mxPoint x="252.5" y="186" as="sourcePoint"/><Array as="points"><mxPoint x="249.25" y="186"/></Array></mxGeometry></mxCell><mxCell id="BUosatLlLlDatQ4Kyscq-27" value="Предоставлен кейс с данными" style="shape=hexagon;perimeter=hexagonPerimeter2;whiteSpace=wrap;html=1;fixedSize=1;fillColor=#F8CECC;" parent="1" vertex="1"><mxGeometry x="171.25" y="151" width="155.5" height="35" as="geometry"/></mxCell><mxCell id="BUosatLlLlDatQ4Kyscq-105" style="edgeStyle=orthogonalEdgeStyle;rounded=0;orthogonalLoop=1;jettySize=auto;html=1;exitX=0.5;exitY=1;exitDx=0;exitDy=0;entryX=0.5;entryY=0;entryDx=0;entryDy=0;endArrow=classicThin;endFill=1;" parent="1" source="BUosatLlLlDatQ4Kyscq-33" target="BUosatLlLlDatQ4Kyscq-18" edge="1"><mxGeometry relative="1" as="geometry"/></mxCell><mxCell id="BUosatLlLlDatQ4Kyscq-33" value="Кейс с данными доступен в расчётном модуле" style="shape=hexagon;perimeter=hexagonPerimeter2;whiteSpace=wrap;html=1;fixedSize=1;fillColor=#F8CECC;" parent="1" vertex="1"><mxGeometry x="184.5" y="281" width="135.75" height="50" as="geometry"/></mxCell><mxCell id="BUosatLlLlDatQ4Kyscq-117" style="edgeStyle=orthogonalEdgeStyle;rounded=0;orthogonalLoop=1;jettySize=auto;html=1;exitX=0.5;exitY=1;exitDx=0;exitDy=0;entryX=0.5;entryY=0;entryDx=0;entryDy=0;endArrow=classicThin;endFill=1;" parent="1" source="BUosatLlLlDatQ4Kyscq-36" target="BUosatLlLlDatQ4Kyscq-42" edge="1"><mxGeometry relative="1" as="geometry"><Array as="points"><mxPoint x="429" y="121"/><mxPoint x="509" y="121"/></Array></mxGeometry></mxCell><mxCell id="BUosatLlLlDatQ4Kyscq-36" value="Формирование новой методики" style="rounded=1;whiteSpace=wrap;html=1;fillColor=#FFFFFF;" parent="1" vertex="1"><mxGeometry x="369.25" y="71" width="120" height="40" as="geometry"/></mxCell><mxCell id="BUosatLlLlDatQ4Kyscq-108" style="edgeStyle=orthogonalEdgeStyle;rounded=0;orthogonalLoop=1;jettySize=auto;html=1;exitX=0.5;exitY=1;exitDx=0;exitDy=0;entryX=0.5;entryY=0;entryDx=0;entryDy=0;endArrow=classicThin;endFill=1;" parent="1" source="BUosatLlLlDatQ4Kyscq-38" target="BUosatLlLlDatQ4Kyscq-41" edge="1"><mxGeometry relative="1" as="geometry"><Array as="points"><mxPoint x="229" y="461"/><mxPoint x="229" y="491"/><mxPoint x="350" y="491"/><mxPoint x="350" y="11"/><mxPoint x="509" y="11"/></Array></mxGeometry></mxCell><mxCell id="BUosatLlLlDatQ4Kyscq-38" value="Получены данные для исследований&amp;nbsp;&lt;br&gt;в необходимом формате" style="shape=hexagon;perimeter=hexagonPerimeter2;whiteSpace=wrap;html=1;fixedSize=1;fillColor=#F8CECC;" parent="1" vertex="1"><mxGeometry x="162" y="411" width="175" height="50" as="geometry"/></mxCell><mxCell id="BUosatLlLlDatQ4Kyscq-113" style="edgeStyle=orthogonalEdgeStyle;rounded=0;orthogonalLoop=1;jettySize=auto;html=1;exitX=0;exitY=0.5;exitDx=0;exitDy=0;entryX=0.5;entryY=0;entryDx=0;entryDy=0;endArrow=classicThin;endFill=1;" parent="1" source="BUosatLlLlDatQ4Kyscq-41" target="BUosatLlLlDatQ4Kyscq-36" edge="1"><mxGeometry relative="1" as="geometry"/></mxCell><mxCell id="BUosatLlLlDatQ4Kyscq-114" style="edgeStyle=orthogonalEdgeStyle;rounded=0;orthogonalLoop=1;jettySize=auto;html=1;exitX=1;exitY=0.5;exitDx=0;exitDy=0;entryX=0.5;entryY=0;entryDx=0;entryDy=0;endArrow=classicThin;endFill=1;" parent="1" source="BUosatLlLlDatQ4Kyscq-41" target="BUosatLlLlDatQ4Kyscq-23" edge="1"><mxGeometry relative="1" as="geometry"/></mxCell><mxCell id="BUosatLlLlDatQ4Kyscq-41" value="XOR" style="ellipse;whiteSpace=wrap;html=1;aspect=fixed;fillColor=#FFFFFF;" parent="1" vertex="1"><mxGeometry x="489.25" y="31" width="40" height="40" as="geometry"/></mxCell><mxCell id="BUosatLlLlDatQ4Kyscq-129" style="edgeStyle=orthogonalEdgeStyle;rounded=0;orthogonalLoop=1;jettySize=auto;html=1;exitX=0.5;exitY=1;exitDx=0;exitDy=0;entryX=0.5;entryY=0;entryDx=0;entryDy=0;endArrow=classic;endFill=1;" parent="1" source="BUosatLlLlDatQ4Kyscq-42" target="BUosatLlLlDatQ4Kyscq-49" edge="1"><mxGeometry relative="1" as="geometry"/></mxCell><mxCell id="BUosatLlLlDatQ4Kyscq-42" value="OR" style="ellipse;whiteSpace=wrap;html=1;aspect=fixed;fillColor=#FFFFFF;" parent="1" vertex="1"><mxGeometry x="489.25" y="131" width="40" height="40" as="geometry"/></mxCell><mxCell id="BUosatLlLlDatQ4Kyscq-60" style="edgeStyle=orthogonalEdgeStyle;rounded=0;orthogonalLoop=1;jettySize=auto;html=1;exitX=0.5;exitY=1;exitDx=0;exitDy=0;endArrow=classicThin;endFill=1;entryX=0.5;entryY=0;entryDx=0;entryDy=0;" parent="1" source="BUosatLlLlDatQ4Kyscq-43" edge="1"><mxGeometry relative="1" as="geometry"><mxPoint x="410" y="541" as="targetPoint"/><Array as="points"><mxPoint x="506.5" y="521"/><mxPoint x="409.5" y="521"/></Array></mxGeometry></mxCell><mxCell id="BUosatLlLlDatQ4Kyscq-83" style="edgeStyle=orthogonalEdgeStyle;rounded=0;orthogonalLoop=1;jettySize=auto;html=1;exitX=0.5;exitY=1;exitDx=0;exitDy=0;entryX=0.5;entryY=0;entryDx=0;entryDy=0;endArrow=classicThin;endFill=1;" parent="1" source="BUosatLlLlDatQ4Kyscq-43" target="BUosatLlLlDatQ4Kyscq-44" edge="1"><mxGeometry relative="1" as="geometry"><Array as="points"><mxPoint x="506.5" y="521"/><mxPoint x="601.5000000000001" y="521"/></Array></mxGeometry></mxCell><mxCell id="BUosatLlLlDatQ4Kyscq-43" value="Утверждение применения методики" style="rounded=1;whiteSpace=wrap;html=1;fillColor=#FFFFFF;" parent="1" vertex="1"><mxGeometry x="446.25" y="451" width="120" height="60" as="geometry"/></mxCell><mxCell id="_TgJWEcO7geC7h33vfL1-1" style="edgeStyle=orthogonalEdgeStyle;rounded=0;orthogonalLoop=1;jettySize=auto;html=1;exitX=0.5;exitY=1;exitDx=0;exitDy=0;entryX=0.5;entryY=0;entryDx=0;entryDy=0;" parent="1" source="BUosatLlLlDatQ4Kyscq-44" target="BUosatLlLlDatQ4Kyscq-93" edge="1"><mxGeometry relative="1" as="geometry"><Array as="points"><mxPoint x="601" y="591"/><mxPoint x="810" y="591"/><mxPoint x="810" y="211"/><mxPoint x="720" y="211"/><mxPoint x="720" y="11"/><mxPoint x="866" y="11"/></Array></mxGeometry></mxCell><mxCell id="BUosatLlLlDatQ4Kyscq-44" value="Методика утверждена" style="shape=hexagon;perimeter=hexagonPerimeter2;whiteSpace=wrap;html=1;fixedSize=1;fillColor=#F8CECC;" parent="1" vertex="1"><mxGeometry x="548.5000000000001" y="541" width="105" height="40" as="geometry"/></mxCell><mxCell id="BUosatLlLlDatQ4Kyscq-122" style="edgeStyle=orthogonalEdgeStyle;rounded=0;orthogonalLoop=1;jettySize=auto;html=1;exitX=0;exitY=0.5;exitDx=0;exitDy=0;endArrow=classic;endFill=1;entryX=0;entryY=0;entryDx=0;entryDy=0;" parent="1" source="BUosatLlLlDatQ4Kyscq-45" target="BUosatLlLlDatQ4Kyscq-41" edge="1"><mxGeometry relative="1" as="geometry"><mxPoint x="270" y="291" as="targetPoint"/><Array as="points"><mxPoint x="340" y="561"/><mxPoint x="340" y="531"/><mxPoint x="360" y="531"/><mxPoint x="360" y="37"/></Array></mxGeometry></mxCell><mxCell id="BUosatLlLlDatQ4Kyscq-45" value="Методика&lt;br&gt;не утверждена" style="shape=hexagon;perimeter=hexagonPerimeter2;whiteSpace=wrap;html=1;fixedSize=1;fillColor=#F8CECC;" parent="1" vertex="1"><mxGeometry x="351" y="541" width="119" height="40" as="geometry"/></mxCell><mxCell id="BUosatLlLlDatQ4Kyscq-52" style="edgeStyle=orthogonalEdgeStyle;rounded=0;orthogonalLoop=1;jettySize=auto;html=1;exitX=0.5;exitY=1;exitDx=0;exitDy=0;entryX=0.5;entryY=0;entryDx=0;entryDy=0;endArrow=classicThin;endFill=1;" parent="1" source="BUosatLlLlDatQ4Kyscq-49" target="BUosatLlLlDatQ4Kyscq-19" edge="1"><mxGeometry relative="1" as="geometry"/></mxCell><mxCell id="BUosatLlLlDatQ4Kyscq-49" value="Выбрана методика для проведения исследований" style="shape=hexagon;perimeter=hexagonPerimeter2;whiteSpace=wrap;html=1;fixedSize=1;fillColor=#F8CECC;" parent="1" vertex="1"><mxGeometry x="415.75" y="191" width="187.25" height="40" as="geometry"/></mxCell><mxCell id="BUosatLlLlDatQ4Kyscq-59" style="edgeStyle=orthogonalEdgeStyle;rounded=0;orthogonalLoop=1;jettySize=auto;html=1;exitX=0.5;exitY=1;exitDx=0;exitDy=0;entryX=0.5;entryY=0;entryDx=0;entryDy=0;endArrow=classicThin;endFill=1;" parent="1" source="BUosatLlLlDatQ4Kyscq-55" target="BUosatLlLlDatQ4Kyscq-43" edge="1"><mxGeometry relative="1" as="geometry"/></mxCell><mxCell id="BUosatLlLlDatQ4Kyscq-55" value="Результаты удачных экспериментов загружены в расчётный модуль" style="shape=hexagon;perimeter=hexagonPerimeter2;whiteSpace=wrap;html=1;fixedSize=1;fillColor=#F8CECC;" parent="1" vertex="1"><mxGeometry x="422" y="371" width="175" height="60" as="geometry"/></mxCell><mxCell id="BUosatLlLlDatQ4Kyscq-65" style="edgeStyle=orthogonalEdgeStyle;rounded=0;orthogonalLoop=1;jettySize=auto;html=1;exitX=0.5;exitY=1;exitDx=0;exitDy=0;entryX=0.5;entryY=0;entryDx=0;entryDy=0;endArrow=classicThin;endFill=1;" parent="1" source="BUosatLlLlDatQ4Kyscq-63" target="BUosatLlLlDatQ4Kyscq-55" edge="1"><mxGeometry relative="1" as="geometry"/></mxCell><mxCell id="BUosatLlLlDatQ4Kyscq-63" value="Загрузка результатов удачных экспериментов" style="rounded=1;whiteSpace=wrap;html=1;fillColor=#FFFFFF;" parent="1" vertex="1"><mxGeometry x="438.25" y="311" width="142.75" height="40" as="geometry"/></mxCell><mxCell id="BUosatLlLlDatQ4Kyscq-121" style="edgeStyle=none;rounded=0;orthogonalLoop=1;jettySize=auto;html=1;exitX=0;exitY=0.5;exitDx=0;exitDy=0;entryX=1;entryY=0.5;entryDx=0;entryDy=0;endArrow=none;endFill=0;" parent="1" source="BUosatLlLlDatQ4Kyscq-80" target="BUosatLlLlDatQ4Kyscq-43" edge="1"><mxGeometry relative="1" as="geometry"/></mxCell><mxCell id="BUosatLlLlDatQ4Kyscq-80" value="Эксперт" style="ellipse;whiteSpace=wrap;html=1;fillColor=#FFF4C3;" parent="1" vertex="1"><mxGeometry x="660.0200000000001" y="471" width="140" height="70" as="geometry"/></mxCell><mxCell id="BUosatLlLlDatQ4Kyscq-81" value="" style="endArrow=none;html=1;rounded=0;exitX=0;exitY=1;exitDx=0;exitDy=0;entryX=0;entryY=0;entryDx=0;entryDy=0;" parent="1" source="BUosatLlLlDatQ4Kyscq-80" target="BUosatLlLlDatQ4Kyscq-80" edge="1"><mxGeometry width="50" height="50" relative="1" as="geometry"><mxPoint x="80.02" y="361" as="sourcePoint"/><mxPoint x="130.01999999999998" y="311" as="targetPoint"/></mxGeometry></mxCell><mxCell id="BUosatLlLlDatQ4Kyscq-84" value="" style="group" parent="1" vertex="1" connectable="0"><mxGeometry x="20" y="201" width="140" height="70" as="geometry"/></mxCell><mxCell id="BUosatLlLlDatQ4Kyscq-85" value="Аналитик" style="ellipse;whiteSpace=wrap;html=1;fillColor=#FFF4C3;" parent="BUosatLlLlDatQ4Kyscq-84" vertex="1"><mxGeometry width="140" height="70" as="geometry"/></mxCell><mxCell id="BUosatLlLlDatQ4Kyscq-86" value="" style="endArrow=none;html=1;rounded=0;exitX=0;exitY=1;exitDx=0;exitDy=0;entryX=0;entryY=0;entryDx=0;entryDy=0;" parent="BUosatLlLlDatQ4Kyscq-84" source="BUosatLlLlDatQ4Kyscq-85" target="BUosatLlLlDatQ4Kyscq-85" edge="1"><mxGeometry width="50" height="50" relative="1" as="geometry"><mxPoint x="-10" y="30" as="sourcePoint"/><mxPoint x="40" y="-20" as="targetPoint"/></mxGeometry></mxCell><mxCell id="BUosatLlLlDatQ4Kyscq-120" style="rounded=0;orthogonalLoop=1;jettySize=auto;html=1;exitX=0;exitY=0.5;exitDx=0;exitDy=0;entryX=1;entryY=0.5;entryDx=0;entryDy=0;endArrow=none;endFill=0;" parent="1" source="BUosatLlLlDatQ4Kyscq-1" target="BUosatLlLlDatQ4Kyscq-43" edge="1"><mxGeometry relative="1" as="geometry"/></mxCell><mxCell id="BUosatLlLlDatQ4Kyscq-125" style="edgeStyle=none;rounded=0;orthogonalLoop=1;jettySize=auto;html=1;exitX=0;exitY=0.5;exitDx=0;exitDy=0;entryX=1;entryY=0.5;entryDx=0;entryDy=0;endArrow=none;endFill=0;" parent="1" source="BUosatLlLlDatQ4Kyscq-5" target="BUosatLlLlDatQ4Kyscq-19" edge="1"><mxGeometry relative="1" as="geometry"/></mxCell><mxCell id="BUosatLlLlDatQ4Kyscq-126" style="edgeStyle=none;rounded=0;orthogonalLoop=1;jettySize=auto;html=1;exitX=0;exitY=0.5;exitDx=0;exitDy=0;entryX=1;entryY=0.5;entryDx=0;entryDy=0;endArrow=none;endFill=0;" parent="1" source="BUosatLlLlDatQ4Kyscq-5" target="BUosatLlLlDatQ4Kyscq-36" edge="1"><mxGeometry relative="1" as="geometry"/></mxCell><mxCell id="BUosatLlLlDatQ4Kyscq-127" style="edgeStyle=none;rounded=0;orthogonalLoop=1;jettySize=auto;html=1;exitX=0;exitY=0.5;exitDx=0;exitDy=0;entryX=0.75;entryY=1;entryDx=0;entryDy=0;endArrow=none;endFill=0;" parent="1" source="BUosatLlLlDatQ4Kyscq-5" target="BUosatLlLlDatQ4Kyscq-23" edge="1"><mxGeometry relative="1" as="geometry"/></mxCell><mxCell id="BUosatLlLlDatQ4Kyscq-128" style="edgeStyle=none;rounded=0;orthogonalLoop=1;jettySize=auto;html=1;exitX=0;exitY=0.5;exitDx=0;exitDy=0;entryX=1;entryY=0.5;entryDx=0;entryDy=0;endArrow=none;endFill=0;" parent="1" source="BUosatLlLlDatQ4Kyscq-5" target="BUosatLlLlDatQ4Kyscq-63" edge="1"><mxGeometry relative="1" as="geometry"/></mxCell><mxCell id="2" style="edgeStyle=orthogonalEdgeStyle;rounded=0;orthogonalLoop=1;jettySize=auto;html=1;exitX=1;exitY=0.5;exitDx=0;exitDy=0;entryX=0;entryY=0.5;entryDx=0;entryDy=0;endArrow=none;endFill=0;" edge="1" parent="1" source="BUosatLlLlDatQ4Kyscq-85" target="BUosatLlLlDatQ4Kyscq-17"><mxGeometry relative="1" as="geometry"/></mxCell><mxCell id="3" style="edgeStyle=orthogonalEdgeStyle;rounded=0;orthogonalLoop=1;jettySize=auto;html=1;exitX=1;exitY=0.5;exitDx=0;exitDy=0;entryX=0;entryY=0.5;entryDx=0;entryDy=0;endArrow=none;endFill=0;" edge="1" parent="1" target="BUosatLlLlDatQ4Kyscq-16"><mxGeometry relative="1" as="geometry"><mxPoint x="160.25000000000023" y="98" as="sourcePoint"/></mxGeometry></mxCell><mxCell id="BUosatLlLlDatQ4Kyscq-119" style="edgeStyle=orthogonalEdgeStyle;rounded=0;orthogonalLoop=1;jettySize=auto;html=1;entryX=0.5;entryY=0;entryDx=0;entryDy=0;endArrow=classicThin;endFill=1;" parent="1" source="BUosatLlLlDatQ4Kyscq-93" target="BUosatLlLlDatQ4Kyscq-95" edge="1"><mxGeometry relative="1" as="geometry"/></mxCell><mxCell id="BUosatLlLlDatQ4Kyscq-93" value="Внедрение методики по расчету элемента генплана" style="rounded=1;whiteSpace=wrap;html=1;fillColor=#FFFFFF;" parent="1" vertex="1"><mxGeometry x="799.99" y="61" width="132" height="40" as="geometry"/></mxCell><mxCell id="BUosatLlLlDatQ4Kyscq-95" value="Возможность расчета элемента генплана&amp;nbsp;&lt;br&gt;с заданными требованиями" style="shape=hexagon;perimeter=hexagonPerimeter2;whiteSpace=wrap;html=1;fixedSize=1;fillColor=#F8CECC;" parent="1" vertex="1"><mxGeometry x="760" y="120" width="211.99" height="60" as="geometry"/></mxCell><mxCell id="4" value="" style="group" vertex="1" connectable="0" parent="1"><mxGeometry x="20" y="70" width="140" height="70" as="geometry"/></mxCell><mxCell id="5" value="Эксперт" style="ellipse;whiteSpace=wrap;html=1;fillColor=#FFF4C3;" vertex="1" parent="4"><mxGeometry y="-7" width="140" height="70" as="geometry"/></mxCell><mxCell id="6" value="" style="endArrow=none;html=1;rounded=0;exitX=0;exitY=1;exitDx=0;exitDy=0;entryX=0;entryY=0;entryDx=0;entryDy=0;" edge="1" parent="4" source="5" target="5"><mxGeometry width="50" height="50" relative="1" as="geometry"><mxPoint x="-10" y="30" as="sourcePoint"/><mxPoint x="40" y="-20" as="targetPoint"/></mxGeometry></mxCell></root></mxGraphModel></diagram></mxfile>